<svg width="16" height="16" viewBox="0 0 16 16" fill="none" xmlns="http://www.w3.org/2000/svg">
<g clip-path="url(#clip0_977_20036)">
<path d="M7.99967 1.33337C9.66719 3.15894 10.6148 5.52806 10.6663 8.00004C10.6148 10.472 9.66719 12.8411 7.99967 14.6667M7.99967 1.33337C6.33215 3.15894 5.38451 5.52806 5.33301 8.00004C5.38451 10.472 6.33215 12.8411 7.99967 14.6667M7.99967 1.33337C4.31778 1.33337 1.33301 4.31814 1.33301 8.00004C1.33301 11.6819 4.31778 14.6667 7.99967 14.6667M7.99967 1.33337C11.6816 1.33337 14.6663 4.31814 14.6663 8.00004C14.6663 11.6819 11.6816 14.6667 7.99967 14.6667M1.66635 6.00004H14.333M1.66634 10H14.333" stroke="#767693" stroke-linecap="round" stroke-linejoin="round"/>
</g>
<defs>
<clipPath id="clip0_977_20036">
<rect width="16" height="16" fill="white"/>
</clipPath>
</defs>
</svg>
