<svg width="89" height="18" viewBox="0 0 89 18" fill="none" xmlns="http://www.w3.org/2000/svg">
<path d="M13.6729 15.7571C13.634 15.7571 13.5992 15.7448 13.5685 15.7182C12.2278 14.6228 10.533 14.0209 8.79733 14.0188C6.26743 14.0188 4.13053 13.6155 2.61996 12.8497C2.52785 12.8026 2.43779 12.7555 2.34977 12.7064C2.25971 12.6552 2.17375 12.604 2.08778 12.5508C0.702067 11.6868 0 10.5054 0 9.04352C0 7.87853 0.454399 6.88551 1.34887 6.08701C1.68455 6.25899 2.06526 6.41665 2.48282 6.55792L2.53194 6.5743C2.87581 6.70124 3.10915 7.03498 3.10915 7.40352V8.28187C3.10915 8.32077 3.11325 8.35968 3.11939 8.40062L3.12348 8.4211C3.19103 8.8183 3.5308 9.10495 3.93198 9.10495C4.11006 9.10495 4.27995 9.04967 4.42322 8.9432L4.44369 8.92682L4.46007 8.91249C5.67794 7.92357 7.22126 7.3769 8.80142 7.3769C9.03066 7.3769 9.25377 7.37485 9.47892 7.37076C12.3957 7.31138 14.7352 6.86709 16.254 6.08496C17.1484 6.88347 17.6028 7.87853 17.6028 9.04352C17.6028 10.2085 17.1873 11.1278 16.3665 11.8997C16.1209 12.1311 15.8323 12.3502 15.5089 12.5488C15.4229 12.602 15.3349 12.6532 15.2449 12.7044C15.1569 12.7535 15.0668 12.8026 14.9726 12.8477C14.8969 12.8845 14.8212 12.9214 14.7434 12.9582C14.7352 12.9603 14.725 12.9664 14.7025 12.9767C14.1682 13.2387 13.8366 13.7711 13.8366 14.3648V15.5954C13.8366 15.6854 13.763 15.7592 13.6749 15.7592L13.6729 15.7571Z" fill="#D5D4FF"/>
<path d="M8.80142 17.3525C3.45507 17.3525 0 16.3902 0 14.9017C0 14.0745 1.05208 13.5463 1.95678 13.2453C3.59221 14.183 5.95836 14.6785 8.80142 14.6806C10.3836 14.6806 11.9269 15.2313 13.151 16.2305C13.2983 16.3513 13.4825 16.4189 13.6729 16.4189C14.1253 16.4189 14.4937 16.0503 14.4937 15.5958V14.3653C14.4937 14.0254 14.684 13.7203 14.9931 13.5688L15.0074 13.5627C15.2183 13.4664 15.4291 13.3579 15.6338 13.2412C16.5426 13.5422 17.6028 14.0704 17.6028 14.9017C17.6028 16.3902 14.1478 17.3525 8.80142 17.3525Z" fill="#D5D4FF"/>
<path d="M8.80142 0C3.37319 0 0 1.28784 0 3.35781C0 4.02733 0.337729 4.6129 1.00295 5.10429C1.10734 5.18209 1.22401 5.25989 1.34682 5.3336C1.38571 5.35612 1.42665 5.38069 1.46963 5.40321C1.48396 5.4114 1.49829 5.41959 1.51262 5.42574L1.55151 5.44621C1.61905 5.48307 1.68864 5.51787 1.76028 5.55473C2.0407 5.6919 2.35387 5.81885 2.6916 5.9335L2.753 5.95398C3.28518 6.14849 3.67408 6.62964 3.75391 7.18654C3.76414 7.20292 3.77028 7.22135 3.77028 7.24182V7.40357V8.28193C3.77028 8.29012 3.77028 8.29831 3.77233 8.30445L3.77642 8.32083C3.79484 8.39454 3.8583 8.44572 3.93403 8.44572C3.96883 8.44572 4.00158 8.43548 4.02818 8.41706L4.03842 8.40682C5.3791 7.31758 7.06979 6.71972 8.79937 6.71972C9.02657 6.71972 9.24763 6.71768 9.46664 6.71358C12.1603 6.6583 14.4261 6.24676 15.8466 5.55677C15.9183 5.52197 15.9879 5.48511 16.0554 5.44826L16.0943 5.42778C16.1086 5.41959 16.123 5.4114 16.1373 5.40526C16.1721 5.38683 16.2048 5.36636 16.2376 5.34793L16.2581 5.33565C17.1525 4.80126 17.6049 4.13789 17.6049 3.36396C17.6028 1.28784 14.2317 0 8.80142 0ZM6.53352 2.37094C6.45983 2.41394 6.38001 2.43442 6.30018 2.43442C6.14257 2.43442 5.98701 2.35252 5.90104 2.2051L5.58583 1.66662C5.45688 1.4455 5.53057 1.16295 5.75163 1.03396C5.97064 0.904972 6.25515 0.97868 6.38205 1.19776L6.69727 1.73624C6.82622 1.95736 6.75253 2.23991 6.53352 2.3689V2.37094ZM9.19237 2.37094C9.11868 2.41394 9.03885 2.43442 8.95903 2.43442C8.80142 2.43442 8.64586 2.35252 8.55989 2.2051L8.24468 1.66662C8.11573 1.4455 8.18941 1.16295 8.40843 1.03396C8.62949 0.904972 8.91195 0.97868 9.0409 1.19776L9.35611 1.73624C9.48506 1.95736 9.41138 2.23991 9.19237 2.3689V2.37094ZM11.8512 2.37094C11.7775 2.41394 11.6977 2.43442 11.6179 2.43442C11.4582 2.43442 11.3047 2.35252 11.2187 2.2051L10.9035 1.66662C10.7746 1.4455 10.8483 1.16295 11.0673 1.03396C11.2883 0.904972 11.5708 0.97868 11.6997 1.19776L12.015 1.73624C12.1439 1.95736 12.0702 2.23991 11.8512 2.3689V2.37094Z" fill="#D5D4FF"/>
<path d="M81.6539 3.05769H81.6518C80.5175 3.05769 79.5957 3.97283 79.5957 5.099V13.5869C79.5957 13.9785 79.9186 14.2971 80.3131 14.2971C80.7076 14.2971 81.0285 13.9785 81.0285 13.5869V9.38859H82.2752V13.5869C82.2752 13.9785 82.5982 14.2971 82.9906 14.2971C83.1868 14.2971 83.3667 14.2179 83.4975 14.0881C83.6262 13.9602 83.708 13.7817 83.708 13.5848V5.09697C83.708 3.9708 82.7862 3.05566 81.6518 3.05566L81.6539 3.05769ZM82.2773 7.96414H81.0305V5.09697C81.0305 4.75608 81.3105 4.47809 81.6539 4.47809C81.8256 4.47809 81.9809 4.54708 82.0933 4.66071C82.2057 4.77434 82.2773 4.92856 82.2773 5.099V7.96617V7.96414Z" fill="#D5D4FF"/>
<path d="M77.7054 12.8746H75.7413V3.76781C75.7413 3.37416 75.4204 3.05762 75.0259 3.05762C74.6294 3.05762 74.3105 3.37619 74.3105 3.76781V13.2378C74.3105 13.8222 74.7868 14.295 75.3754 14.295H77.7075C78.104 14.295 78.4228 13.9764 78.4228 13.5848C78.4228 13.1911 78.1019 12.8746 77.7075 12.8746H77.7054Z" fill="#D5D4FF"/>
<path d="M88.9991 5.11719C88.9991 3.98087 88.0712 3.05762 86.9246 3.05762H85.6022C85.2077 3.05762 84.8848 3.37822 84.8848 3.76781V13.5848C84.8848 13.9784 85.2057 14.295 85.6022 14.295H86.9246C88.0712 14.295 88.9991 13.3737 88.9991 12.2354V10.0236C88.9991 9.50824 88.807 9.03545 88.4902 8.67426C88.807 8.31308 88.9991 7.84232 88.9991 7.32489V5.11516V5.11719ZM87.5663 12.2354C87.5663 12.5885 87.2802 12.8725 86.9246 12.8725H86.3196V9.38649H86.9246C87.2781 9.38649 87.5663 9.6726 87.5663 10.0236V12.2334V12.2354ZM87.5663 7.32692C87.5663 7.67796 87.2802 7.96407 86.9246 7.96407H86.3196V4.48207H86.9246C87.2781 4.48207 87.5663 4.76818 87.5663 5.11922V7.32692Z" fill="#D5D4FF"/>
<path d="M67.6477 3.05762C67.2512 3.05762 66.9324 3.37619 66.9324 3.76781V7.96609H65.6856V3.76781C65.6856 3.37416 65.3647 3.05762 64.9702 3.05762C64.5758 3.05762 64.2549 3.37619 64.2549 3.76781V13.5848C64.2549 13.9784 64.5758 14.295 64.9702 14.295C65.3647 14.295 65.6856 13.9764 65.6856 13.5848V9.38852H66.9324V13.5848C66.9324 13.9784 67.2532 14.295 67.6477 14.295C68.0422 14.295 68.3631 13.9764 68.3631 13.5848V3.76984C68.3631 3.37619 68.0422 3.05965 67.6477 3.05965V3.05762Z" fill="#D5D4FF"/>
<path d="M61.019 3.05762C59.8826 3.05762 58.9629 3.97073 58.9629 5.09893V12.2557C58.9629 13.3839 59.8826 14.297 61.019 14.297C62.1554 14.297 63.0752 13.3839 63.0752 12.2557V12.0873C63.0752 11.6936 62.7543 11.3771 62.3598 11.3771C61.9653 11.3771 61.6445 11.6956 61.6445 12.0873V12.2557C61.6445 12.5966 61.3644 12.8746 61.0211 12.8746C60.6777 12.8746 60.3977 12.5966 60.3977 12.2557V5.09893C60.3977 4.75803 60.6777 4.48004 61.0211 4.48004C61.3644 4.48004 61.6445 4.75803 61.6445 5.09893V5.26734C61.6445 5.661 61.9653 5.97754 62.3598 5.97754C62.7543 5.97754 63.0752 5.65897 63.0752 5.26734V5.09893C63.0752 3.97073 62.1554 3.05762 61.019 3.05762Z" fill="#D5D4FF"/>
<path d="M57.0708 3.05762C56.6743 3.05762 56.3555 3.37619 56.3555 3.76781V13.5848C56.3555 13.9784 56.6764 14.295 57.0708 14.295C57.4653 14.295 57.7862 13.9764 57.7862 13.5848V3.76984C57.7862 3.37619 57.4653 3.05965 57.0708 3.05965V3.05762Z" fill="#D5D4FF"/>
<path d="M54.9613 3.26256C54.8448 3.1327 54.6793 3.05762 54.5035 3.05762H54.2848C54.1131 3.05762 53.9496 3.12864 53.8331 3.25647L53.7698 3.32546C53.6839 3.4188 53.6308 3.53446 53.6144 3.66027L52.7908 10.2651L51.9732 3.66027C51.9569 3.53649 51.9037 3.4188 51.8179 3.32546L51.7545 3.25647C51.638 3.13067 51.4745 3.05762 51.3028 3.05762H51.1822C51.0105 3.05762 50.847 3.12864 50.7305 3.25647L50.6672 3.32546C50.5813 3.4188 50.5282 3.53446 50.5118 3.66027L49.6922 10.2651L48.8686 3.66027C48.8522 3.53649 48.7991 3.4188 48.7132 3.32546L48.6499 3.25647C48.5334 3.13067 48.3699 3.05762 48.1982 3.05762H47.9795C47.8037 3.05762 47.6382 3.1327 47.5217 3.26256C47.4052 3.39242 47.352 3.56693 47.3724 3.73941L48.564 13.3068C48.6335 13.8709 49.1179 14.297 49.6922 14.297C50.2666 14.297 50.751 13.8729 50.8205 13.3068L51.2395 9.91609L51.6605 13.3068C51.73 13.8729 52.2144 14.297 52.7887 14.297C53.361 14.297 53.8454 13.8729 53.9149 13.3068L55.1065 3.73941C55.129 3.56693 55.0738 3.39242 54.9573 3.26256H54.9613Z" fill="#D5D4FF"/>
<path d="M44.3776 3.05762H43.0552C42.6607 3.05762 42.3398 3.37822 42.3398 3.76781V13.5848C42.3398 13.9784 42.6607 14.295 43.0552 14.295H44.3776C45.5222 14.295 46.4521 13.3737 46.4521 12.2354V5.11719C46.4521 3.98087 45.5242 3.05762 44.3776 3.05762ZM45.0194 12.2354C45.0194 12.5885 44.7312 12.8725 44.3776 12.8725H43.7726V4.48207H44.3776C44.7312 4.48207 45.0194 4.76818 45.0194 5.11922V12.2354Z" fill="#D5D4FF"/>
<path d="M40.4476 3.05762C40.0511 3.05762 39.7323 3.37619 39.7323 3.76781V6.83992L38.4364 3.51214C38.3302 3.23821 38.0645 3.05762 37.7681 3.05762C37.3716 3.05762 37.0527 3.37619 37.0527 3.76781V13.5848C37.0527 13.9784 37.3736 14.295 37.7681 14.295C38.1626 14.295 38.4834 13.9764 38.4834 13.5848V7.58259L39.7302 10.7866V13.5848C39.7302 13.9764 40.0511 14.295 40.4456 14.295C40.84 14.295 41.1609 13.9764 41.1609 13.5848V3.76984C41.1609 3.37619 40.84 3.05965 40.4456 3.05965L40.4476 3.05762Z" fill="#D5D4FF"/>
<path d="M33.8199 3.05762C32.6835 3.05762 31.7617 3.97276 31.7617 5.09893V13.5848C31.7617 13.9784 32.0826 14.297 32.4791 14.297C32.8756 14.297 33.1965 13.9784 33.1965 13.5848V9.38852H34.4433V13.5888C34.4433 13.9804 34.7642 14.297 35.1586 14.297C35.5531 14.297 35.876 13.9784 35.876 13.5848V5.09893C35.876 3.97073 34.9543 3.05762 33.8199 3.05762ZM34.4433 7.96406H33.1965V5.09893C33.1965 4.76006 33.4765 4.48207 33.8199 4.48207C33.9916 4.48207 34.1469 4.55106 34.2614 4.66469C34.3738 4.77832 34.4453 4.93254 34.4453 5.10298V7.96609L34.4433 7.96406Z" fill="#D5D4FF"/>
<path d="M28.5298 3.05762C27.3934 3.05762 26.4736 3.97073 26.4736 5.09893V6.26162C26.4736 7.44664 27.0827 8.55251 28.0862 9.19169C28.7505 9.61375 29.1532 10.3442 29.1532 11.1275V12.2537C29.1532 12.5966 28.8731 12.8725 28.5298 12.8725C28.1844 12.8725 27.9064 12.5946 27.9064 12.2537V12.0852C27.9064 11.6916 27.5855 11.375 27.191 11.375C26.7966 11.375 26.4757 11.6936 26.4757 12.0852V12.2537C26.4757 13.3819 27.3954 14.295 28.5318 14.295C29.6682 14.295 30.588 13.3819 30.588 12.2537V10.9956C30.588 9.81058 29.9809 8.70673 28.9753 8.06552C28.3111 7.64143 27.9084 6.91297 27.9084 6.12973V5.09893C27.9084 4.756 28.1884 4.48004 28.5318 4.48004C28.8752 4.48004 29.1552 4.75803 29.1552 5.09893V5.26734C29.1552 5.661 29.4761 5.97754 29.8705 5.97754C30.265 5.97754 30.5859 5.65897 30.5859 5.26734V5.09893C30.5859 3.97073 29.6662 3.05762 28.5298 3.05762Z" fill="#D5D4FF"/>
</svg>
